PathFileType	3	(X/Y/Z)	D:\minhoCalibration\240510\subject1_KPNP\preferred\preferred20.trc
DataRate	CameraRate	NumFrames	NumMarkers	Units	OrigDataRate	OrigDataStartFrame	OrigNumFrames
200.0	200.0	21	10	mm	200.0	429	219	
Frame#	Time	Left_Ankle_Outer1			Left_Ankle_Inner1			Left_Knee_Outer1			Left_Knee_Inner1			Left_Wrist1			Right_Wrist1			Right_Knee_Inner1			Right_Knee_Outer1			Right_Ankle_Inner1			Right_Ankle_Outer1			
		X1	Y1	Z1	X2	Y2	Z2	X3	Y3	Z3	X4	Y4	Z4	X5	Y5	Z5	X6	Y6	Z6	X7	Y7	Z7	X8	Y8	Z8	X9	Y9	Z9	X10	Y10	Z10	
429	2.135	-595.65668	129.58601	-587.53326	-641.81696	132.70738	-554.08655	-526.85504	560.43524	-431.64072	-638.80609	524.74609	-442.03128	-543.60553	945.43152	-642.73792	-779.31934	966.29852	-907.10938	-782.3988	489.26123	-899.8725	-821.90857	533.97083	-996.89093	-703.79999	105.44188	-1108.5499	-786.73193	109.00525	-1182.829
430	2.14	-595.70367	129.48111	-587.09528	-641.98071	132.39119	-553.79712	-526.50287	559.13623	-428.80698	-638.62598	523.96326	-439.04898	-541.43817	943.78912	-640.51782	-779.35687	965.10571	-903.36285	-784.03204	487.80624	-895.7157	-823.68262	532.95911	-993.03088	-703.83319	105.67949	-1107.4945	-786.58405	109.52397	-1181.9277
431	2.145	-595.29749	129.12494	-586.41473	-641.47748	132.10912	-553.85712	-526.28979	557.84576	-425.93573	-638.414	523.18585	-436.11304	-539.41168	942.1347	-638.4176	-779.31055	964.31104	-899.00562	-785.86371	486.53766	-891.48877	-825.61285	531.93994	-989.0332	-703.85791	106.11684	-1106.1307	-786.03125	110.82269	-1180.9114
432	2.15	-593.64758	129.3159	-586.70856	-640.14624	131.9147	-554.3631	-526.43878	556.46643	-423.3201	-638.15845	522.39154	-433.39774	-537.12946	940.71661	-636.22205	-779.48444	963.0022	-894.64789	-787.95197	485.32361	-886.89996	-827.80756	530.95349	-984.672	-703.51526	106.46709	-1104.9813	-785.55829	111.76009	-1179.7783
433	2.155	-591.21228	129.32495	-586.78735	-638.31964	131.6418	-555.29553	-526.23651	555.41962	-420.21887	-638.05554	521.53473	-430.80304	-534.77631	939.41553	-633.96112	-779.69879	962.21783	-889.7467	-790.31213	484.1228	-881.97479	-830.09534	530.02783	-979.98425	-703.85437	107.63203	-1102.7064	-785.74774	112.20156	-1178.8151
434	2.16	-588.1792	129.35634	-586.77545	-635.55957	131.35854	-556.55542	-526.46057	554.30804	-417.30112	-637.97516	520.77124	-428.27939	-532.37482	938.17804	-631.63318	-779.76343	961.37634	-885.11139	-792.7699	482.98523	-876.79199	-832.65485	529.16248	-975.01447	-704.03601	108.63733	-1100.6011	-785.12714	113.74006	-1177.1842
435	2.165	-584.57074	129.25883	-586.72369	-632.99677	131.21889	-558.20593	-526.82184	553.29004	-414.43945	-637.98962	519.97443	-426.1749	-529.88794	937.17004	-629.26422	-779.90015	960.30408	-880.40625	-795.49011	481.93274	-871.2027	-835.39618	528.46771	-969.63934	-704.23212	109.98572	-1098.2434	-784.41699	115.68619	-1175.3673
436	2.17	-580.34131	129.26949	-586.64819	-629.49109	130.98756	-559.38788	-527.37256	552.36517	-411.50928	-638.1665	519.19745	-424.34326	-527.32086	936.31146	-626.76868	-779.98627	959.58246	-875.22418	-798.64124	481.03375	-865.10962	-838.33997	527.89056	-963.85504	-704.53729	111.79987	-1095.677	-784.34875	117.43185	-1173.6002
437	2.175	-575.88184	129.13805	-586.51129	-625.70044	130.58031	-560.79114	-528.05145	551.5083	-408.61893	-638.43146	518.40088	-422.96008	-524.77844	935.69641	-624.25513	-779.92285	959.19641	-870.01013	-801.83429	480.09451	-858.50403	-841.59259	527.47241	-957.55396	-704.69354	113.84001	-1093.2379	-783.40552	120.41787	-1171.3181
438	2.18	-571.07068	129.01476	-586.24445	-621.45782	130.18552	-561.883	-528.74402	550.68707	-405.75906	-638.65607	517.50616	-422.03519	-522.12817	935.32428	-621.57422	-779.68176	958.7702	-864.51581	-805.62787	479.76373	-851.21014	-845.09412	527.3526	-950.99286	-704.77344	116.50101	-1090.652	-783.82092	123.20762	-1169.3766
439	2.185	-566.14557	128.7924	-585.90479	-617.24054	129.6964	-562.93359	-529.52441	549.85767	-402.96201	-638.99371	516.45062	-421.61124	-519.46307	935.23169	-618.85284	-779.15027	958.15741	-857.23865	-809.57794	479.76501	-843.48328	-849.01813	527.53845	-943.76971	-705.44763	119.87956	-1087.6631	-783.55664	127.1033	-1166.5712
440	2.19	-561.29199	128.41737	-585.56354	-612.87616	129.21431	-564.01068	-530.24335	548.98785	-400.36584	-638.93958	515.40631	-421.48633	-516.69946	935.44763	-615.93433	-778.97247	958.92688	-851.69757	-813.73108	480.12363	-835.21875	-853.40015	528.09442	-935.75708	-706.16241	123.87159	-1084.4348	-784.12543	131.4445	-1163.851
441	2.195	-557.06708	127.49934	-585.00543	-608.71765	128.4838	-565.22589	-530.81836	548.04407	-398.06155	-639.00684	514.20459	-421.86407	-513.98572	935.99084	-612.92822	-778.46704	958.62555	-845.78741	-817.99329	480.94543	-826.24188	-858.2027	529.05695	-927.16962	-707.26477	128.58505	-1080.7567	-784.9295	136.08202	-1160.3757
442	2.2	-552.39728	126.84418	-585.26404	-604.77344	127.77676	-566.5921	-531.18323	547.00433	-396.10797	-638.56708	512.95502	-422.65567	-511.26404	936.78802	-609.82745	-777.97449	959.17621	-839.6665	-822.35791	482.03339	-816.45148	-863.55902	530.32684	-917.73175	-708.70367	133.86676	-1076.7012	-786.39709	141.63431	-1156.5549
443	2.205	-548.61499	125.90318	-585.28619	-601.36591	126.90655	-568.04559	-531.23077	545.79108	-394.51654	-637.9483	511.67053	-423.69467	-508.49878	937.95343	-606.53345	-777.41095	960.07062	-833.59869	-826.69055	483.29166	-806.08252	-869.31927	532.01337	-907.37109	-711.40839	139.75853	-1071.7804	-788.31049	147.46683	-1151.864
444	2.21	-545.41907	124.8871	-585.53809	-598.66797	126.03529	-569.41687	-530.81317	544.4715	-393.30032	-636.99658	510.28143	-425.01288	-505.73117	939.47717	-603.15369	-776.73572	961.2326	-826.95874	-831.28955	485.11765	-794.71332	-875.52222	534.03992	-896.07715	-713.9234	146.19553	-1066.4065	-790.86407	154.15033	-1146.502
445	2.215	-542.97369	123.87486	-585.86499	-596.29565	125.06482	-570.55444	-530.00781	543.08459	-392.58649	-635.62048	508.96848	-426.63031	-503.02036	941.35883	-599.6532	-776.22229	962.76355	-820.86273	-836.17542	487.29303	-782.87286	-882.17444	536.48712	-884.32867	-716.46606	153.1114	-1060.4067	-793.80243	161.51097	-1140.2377
446	2.22	-541.46338	122.64319	-586.25214	-595.25354	124.1713	-571.68921	-528.52667	541.72693	-392.33307	-633.77319	507.81958	-428.34109	-500.29886	943.63995	-595.9975	-775.19666	963.88611	-814.34326	-841.66986	490.16681	-770.13715	-888.73438	539.01477	-870.86871	-720.36157	160.49802	-1053.228	-797.58832	169.11716	-1133.0869
447	2.225	-540.42365	121.59121	-586.66364	-593.69336	122.98061	-573.17206	-526.45093	540.45032	-392.65811	-631.75012	506.90555	-430.03711	-497.57074	946.32935	-592.25293	-774.3656	965.52252	-808.02399	-847.04633	493.14322	-756.42383	-895.41669	542.1015	-856.92285	-724.63654	168.2289	-1045.3528	-801.94208	177.03212	-1125.0228
448	2.23	-540.16205	120.49146	-587.09387	-593.5022	122.38046	-574.034	-523.93005	539.35712	-393.66	-629.27496	506.38574	-431.43646	-494.79492	949.34338	-588.51776	-773.86115	967.47144	-801.82739	-852.82025	496.81317	-742.10754	-901.77118	545.52075	-842.25122	-729.45648	176.35092	-1036.4933	-806.56598	185.25996	-1116.1794
449	2.235	-540.20447	119.62383	-587.43152	-593.6131	121.72914	-574.29688	-520.90179	538.56409	-395.18414	-626.36145	506.60629	-432.38858	-492.03696	952.63702	-584.85999	-773.1759	969.55243	-795.49841	-858.87946	501.70105	-727.32379	-907.97906	549.33282	-826.88049	-733.60089	185.08575	-1027.3085	-810.9563	194.17337	-1106.7677
